<svg width="53" height="42" viewBox="0 0 53 42" fill="none" xmlns="http://www.w3.org/2000/svg">
<mask id="mask0_1_996" style="mask-type:luminance" maskUnits="userSpaceOnUse" x="10" y="29" width="34" height="6">
<path d="M10.4121 29.5298H43.5762V34.1206H10.4121V29.5298Z" fill="white"/>
</mask>
<g mask="url(#mask0_1_996)">
<path d="M26.9883 29.5885C26.9875 29.5885 26.986 29.5885 26.9853 29.5885C26.9838 29.5885 26.9831 29.5885 26.9816 29.5885C26.9764 29.5885 26.972 29.5885 26.9668 29.5885C18.3767 29.5885 12.4686 30.7837 10.5254 31.855C12.4708 32.9205 18.3723 34.112 26.955 34.1221H27.0157C35.5984 34.112 41.4998 32.9205 43.4452 31.855C41.502 30.7837 35.5939 29.5885 27.0038 29.5885C26.9986 29.5885 26.9935 29.5885 26.9883 29.5885Z" fill="#3A2215"/>
</g>
<mask id="mask1_1_996" style="mask-type:luminance" maskUnits="userSpaceOnUse" x="3" y="9" width="48" height="23">
<path d="M3.17969 9.50476H50.7939V31.1987H3.17969V9.50476Z" fill="white"/>
</mask>
<g mask="url(#mask1_1_996)">
<path d="M48.4246 18.8936C47.9938 19.2478 48.0567 19.5354 47.9375 19.8548C47.8717 20.0308 47.7976 20.2604 47.4749 20.5379C47.4749 20.5379 43.3153 24.7506 40.5297 23.8488C36.4019 22.5117 38.6671 17.3175 38.6671 17.3175L39.0928 16.4062C39.3045 15.9521 39.9367 15.7652 40.1928 15.6124C40.6592 15.3349 40.8132 15.4298 41.0893 14.8381C41.5372 13.8805 41.1182 12.1891 40.9834 11.8342C40.5867 12.037 38.9462 12.9236 38.4991 13.8819C38.223 14.4737 38.5672 14.8178 38.6953 15.2654C38.7648 15.5117 38.8744 15.8289 38.6627 16.2831L38.2378 17.1943C38.2378 17.1943 35.6964 22.185 31.9055 22.2183C27.2744 22.2589 27.2573 14.8888 27.2573 14.8888C27.2573 14.347 27.5438 14.0449 27.7496 13.8073C28.1235 13.3742 28.6846 13.1163 28.6846 12.4093C28.6846 11.2953 27.3935 9.914 27.0175 9.53517V9.52793C27.0101 9.52069 27.0005 9.51055 26.9938 9.50403C26.9931 9.50548 26.9916 9.50693 26.9901 9.50765C26.9894 9.50693 26.9879 9.50548 26.9871 9.50475C26.9857 9.50548 26.9849 9.50693 26.9834 9.50765C26.9827 9.50693 26.9812 9.50548 26.9805 9.50403C26.9738 9.51055 26.9642 9.52069 26.9568 9.52793V9.53517C26.5807 9.914 25.2897 11.2953 25.2897 12.4093C25.2897 13.1163 25.8508 13.3742 26.2247 13.8073C26.4297 14.0449 26.7169 14.347 26.7169 14.8888C26.7169 14.8888 26.6999 22.2589 22.068 22.2183C18.2779 22.185 15.7365 17.1943 15.7365 17.1943L15.3116 16.2831C15.0999 15.8289 15.2087 15.5117 15.279 15.2654C15.4071 14.8178 15.7513 14.4737 15.4752 13.8819C15.0281 12.9236 13.3869 12.037 12.9908 11.8342C12.8554 12.1891 12.4371 13.8805 12.8842 14.8381C13.1604 15.4298 13.3151 15.3349 13.7807 15.6124C14.0368 15.7652 14.6698 15.9521 14.8815 16.4062L15.3071 17.3175C15.3071 17.3175 17.5724 22.5117 13.4446 23.8488C10.659 24.7506 6.49941 20.5379 6.49941 20.5379C6.17665 20.2604 6.10262 20.0308 6.03674 19.8548C5.91756 19.5354 5.98048 19.2478 5.54964 18.8936C4.80641 18.2837 3.47096 17.9201 3.19336 17.8564C3.26813 18.115 3.84184 19.3608 4.52289 19.9454C4.94336 20.3061 5.33866 20.1851 5.69251 20.3973C9.64334 22.7724 9.95721 31.056 9.95721 31.056H9.99127C10.5405 29.7913 17.9262 28.5078 26.962 28.5078C26.9657 28.5078 27.0086 28.5078 27.0123 28.5078C36.0481 28.5078 43.433 29.7913 43.9823 31.056H44.0171C44.0171 31.056 44.3309 22.7724 48.2818 20.3973C48.6349 20.1851 49.0302 20.3061 49.4507 19.9454C50.1317 19.3608 50.7054 18.115 50.7809 17.8564C50.5033 17.9201 49.1679 18.2837 48.4246 18.8936Z" fill="#3A2215"/>
</g>
</svg>
