<svg width="47" height="31" viewBox="0 0 47 31" fill="none" xmlns="http://www.w3.org/2000/svg">
<mask id="mask0_1_974" style="mask-type:luminance" maskUnits="userSpaceOnUse" x="0" y="0" width="47" height="31">
<path d="M0.578125 0.153931H46.6147V30.8939H0.578125V0.153931Z" fill="white"/>
</mask>
<g mask="url(#mask0_1_974)">
<path d="M41.2989 9.24983H35.4337C35.4051 9.25103 35.3764 9.24863 35.3484 9.24324C35.3204 9.23785 35.2935 9.22946 35.2673 9.21808C35.2411 9.2067 35.2162 9.19292 35.193 9.17615C35.1698 9.15937 35.1491 9.1408 35.1302 9.11924C35.1113 9.09827 35.0955 9.07491 35.0821 9.05035C35.0681 9.02519 35.0577 8.99943 35.0498 8.97247C35.0419 8.94551 35.0376 8.91736 35.0358 8.8892C35.0346 8.86165 35.0358 8.83349 35.0407 8.80594L35.8493 2.69386C35.8535 2.66631 35.8554 2.63875 35.8542 2.61059C35.8523 2.58244 35.8481 2.55488 35.8401 2.52793C35.8322 2.50097 35.8219 2.47521 35.8085 2.45065C35.7951 2.42609 35.7792 2.40272 35.7603 2.38176C35.7414 2.36019 35.7207 2.34162 35.6982 2.32485C35.675 2.30808 35.6506 2.2937 35.6244 2.28232C35.5988 2.27093 35.5714 2.26255 35.5434 2.25716C35.516 2.25176 35.4873 2.24937 35.4587 2.24997H9.44231C9.3375 2.25236 9.23391 2.26434 9.13092 2.28471C9.02855 2.30508 8.92861 2.33443 8.83111 2.37217C8.73361 2.40991 8.64038 2.45544 8.5508 2.50936C8.46184 2.56327 8.37774 2.62437 8.29974 2.69266C8.22114 2.76095 8.14923 2.83524 8.08403 2.91611C8.01883 2.99638 7.96154 3.08204 7.91158 3.1725C7.86161 3.26296 7.81956 3.35701 7.78666 3.45465C7.75314 3.5523 7.72877 3.65234 7.71353 3.75417L7.55083 4.98222H17.5804C17.6743 4.97982 17.7681 4.98761 17.8601 5.00558C17.9527 5.02355 18.0423 5.05111 18.1282 5.08825C18.2148 5.12539 18.2958 5.17152 18.372 5.22663C18.4476 5.28114 18.517 5.34404 18.5786 5.41353C18.6407 5.48362 18.6943 5.5591 18.7388 5.64057C18.7839 5.72204 18.8193 5.80771 18.8449 5.89696C18.8711 5.98622 18.8863 6.07668 18.8918 6.16953C18.8973 6.26178 18.8918 6.35404 18.8766 6.44569C18.8613 6.54453 18.8376 6.64158 18.8053 6.73683C18.7723 6.83148 18.7315 6.92313 18.6828 7.01119C18.634 7.09925 18.578 7.18192 18.5146 7.2604C18.4512 7.33887 18.3811 7.41136 18.305 7.47785C18.2282 7.54374 18.1465 7.60305 18.06 7.65577C17.9729 7.70788 17.8821 7.75281 17.7876 7.78935C17.6925 7.8259 17.595 7.85465 17.4957 7.87442C17.3958 7.89419 17.2946 7.90557 17.1929 7.90856H3.54911C3.48086 7.90916 3.41383 7.91575 3.34741 7.92833C3.28038 7.94031 3.21517 7.95829 3.1518 7.98225C3.08843 8.00621 3.0281 8.03496 2.9696 8.06971C2.91171 8.10385 2.85687 8.14339 2.80568 8.18712C2.75449 8.23085 2.70818 8.27937 2.66552 8.33149C2.62348 8.38361 2.5857 8.43872 2.5534 8.49743C2.5211 8.55613 2.49429 8.61724 2.47296 8.68074C2.45164 8.74364 2.43579 8.80833 2.42665 8.87483V8.90238C2.4169 8.96169 2.41386 9.02159 2.41751 9.0821C2.42117 9.142 2.43153 9.20131 2.44859 9.25941C2.46504 9.31692 2.4882 9.37263 2.51745 9.42595C2.54609 9.47867 2.58082 9.52779 2.62104 9.57391C2.66126 9.61944 2.70574 9.66018 2.7551 9.69612C2.80385 9.73206 2.85687 9.76261 2.91232 9.78718C2.96838 9.81174 3.02627 9.83031 3.0866 9.84289C3.14632 9.85487 3.20725 9.86086 3.26819 9.86026H16.943C17.0375 9.85786 17.1307 9.86505 17.2233 9.88302C17.3153 9.90099 17.4049 9.92855 17.4915 9.96569C17.5774 10.0028 17.6584 10.049 17.7346 10.1041C17.8102 10.1592 17.879 10.2215 17.9412 10.2916C18.0027 10.3611 18.0563 10.4371 18.1008 10.5186C18.1459 10.6001 18.1807 10.6857 18.2062 10.7744C18.2318 10.8637 18.2477 10.9547 18.2526 11.047C18.2574 11.1398 18.2526 11.2315 18.2367 11.3231C18.2215 11.4226 18.1977 11.5196 18.1654 11.6143C18.1331 11.7095 18.0923 11.8012 18.0435 11.8892C17.9948 11.9773 17.9387 12.0606 17.8754 12.139C17.812 12.2169 17.7419 12.2894 17.6657 12.3559C17.589 12.4224 17.5073 12.4817 17.4208 12.5338C17.3336 12.5865 17.2428 12.6309 17.1478 12.6674C17.0533 12.7039 16.9558 12.7327 16.8559 12.7525C16.7559 12.7722 16.6548 12.7836 16.553 12.786H6.41131C6.34489 12.7878 6.27908 12.7956 6.21327 12.8088C6.14806 12.8219 6.08469 12.8405 6.02253 12.8645C5.96099 12.8884 5.90127 12.9178 5.8446 12.9519C5.78793 12.9861 5.7343 13.025 5.68433 13.0688C5.63437 13.1119 5.58866 13.1592 5.54723 13.2107C5.50579 13.2622 5.46923 13.3168 5.43754 13.3743C5.40585 13.4318 5.37904 13.4917 5.35771 13.5534C5.337 13.6157 5.32115 13.6792 5.3114 13.7439V13.7714C5.30165 13.8313 5.2986 13.8912 5.30226 13.9511C5.30592 14.0117 5.31628 14.0704 5.33334 14.1285C5.34979 14.1866 5.37295 14.2423 5.4022 14.295C5.43145 14.3483 5.46557 14.3974 5.50579 14.443C5.54601 14.4885 5.59049 14.5292 5.63985 14.5658C5.6886 14.6017 5.74162 14.6317 5.79707 14.6568C5.85313 14.6814 5.91102 14.7 5.97135 14.7119C6.03107 14.7245 6.092 14.7305 6.15294 14.7293H16.2977C16.3909 14.7281 16.4836 14.7365 16.575 14.7545C16.6664 14.773 16.7547 14.8012 16.84 14.8383C16.9247 14.8755 17.0052 14.9216 17.0801 14.9767C17.1551 15.0312 17.2233 15.0929 17.2843 15.1624C17.3452 15.2319 17.3982 15.3068 17.4427 15.3877C17.4872 15.4685 17.5219 15.553 17.5475 15.6411C17.5731 15.7291 17.5883 15.819 17.5938 15.9106C17.5999 16.0023 17.595 16.0933 17.5804 16.1844C17.5652 16.2832 17.5414 16.3803 17.5091 16.4755C17.4768 16.5708 17.436 16.6624 17.3879 16.7505C17.3391 16.8386 17.2831 16.9218 17.2191 17.0003C17.1557 17.0788 17.0856 17.1513 17.0094 17.2178C16.9333 17.2842 16.8516 17.3436 16.7645 17.3957C16.6773 17.4478 16.5865 17.4927 16.4915 17.5293C16.3964 17.5658 16.2989 17.594 16.199 17.6137C16.099 17.6335 15.9985 17.6449 15.8967 17.6473H5.06156C4.99514 17.6491 4.92872 17.6569 4.86352 17.67C4.79831 17.6826 4.73494 17.7018 4.67278 17.7257C4.61063 17.7497 4.55152 17.7791 4.49485 17.8132C4.43818 17.8474 4.38455 17.8863 4.33458 17.93C4.28462 17.9732 4.23891 18.0205 4.19748 18.072C4.15604 18.1229 4.11948 18.1774 4.08779 18.2349C4.0561 18.2924 4.02929 18.3523 4.00796 18.4146C3.98724 18.4769 3.9714 18.5404 3.96165 18.6051C3.9519 18.6644 3.94885 18.7244 3.95251 18.7849C3.95617 18.8448 3.96653 18.9041 3.98359 18.9622C4.00004 19.0197 4.0232 19.0754 4.05245 19.1287C4.08109 19.1814 4.11582 19.2311 4.15604 19.2767C4.19626 19.3222 4.24074 19.3629 4.2901 19.3989C4.33885 19.4348 4.39186 19.4654 4.44732 19.4899C4.50338 19.5151 4.56127 19.5331 4.6216 19.5456C4.68131 19.5582 4.74225 19.5636 4.80319 19.563H5.61426L5.12859 23.2813C5.11275 23.3754 5.10726 23.47 5.11275 23.5647C5.11823 23.6599 5.13408 23.7534 5.16028 23.845C5.18648 23.9367 5.22304 24.0247 5.26875 24.1086C5.31506 24.1925 5.3699 24.2703 5.43328 24.3422C5.49665 24.4141 5.56734 24.4782 5.64534 24.5345C5.72333 24.5908 5.80682 24.6387 5.89579 24.6771C5.98414 24.7154 6.07616 24.7436 6.17122 24.7621C6.26628 24.7801 6.36195 24.7879 6.45884 24.7855H8.52155C8.14862 27.5849 10.1577 29.854 13.0035 29.854C15.8486 29.854 18.4561 27.5849 18.829 24.7855H29.5996C29.2291 27.5849 31.2382 29.854 34.0894 29.854C36.9407 29.854 39.5421 27.5849 39.9126 24.7855H42.7802C42.8436 24.7837 42.9039 24.7717 42.9624 24.7484C43.0209 24.7256 43.074 24.6933 43.1203 24.6519C43.1672 24.61 43.2056 24.5621 43.2348 24.5076C43.2641 24.4524 43.283 24.3943 43.2915 24.3332L44.3743 16.1646L41.2989 9.24983ZM16.7523 24.885C16.7157 25.0814 16.6633 25.2737 16.5945 25.4618C16.525 25.6499 16.4409 25.8308 16.341 26.0052C16.241 26.1795 16.1271 26.3442 15.9991 26.4994C15.8718 26.6545 15.7316 26.7989 15.5793 26.9313C15.4269 27.0631 15.2648 27.1823 15.0924 27.2883C14.9193 27.3938 14.7395 27.4848 14.5513 27.5609C14.3636 27.637 14.1704 27.6969 13.9724 27.7412C13.7743 27.7855 13.5738 27.8137 13.3709 27.8251C13.2691 27.8311 13.1674 27.8311 13.0656 27.8263C12.9638 27.8209 12.8627 27.8095 12.7621 27.7927C12.6616 27.776 12.5623 27.7538 12.4642 27.7256C12.3667 27.6975 12.2704 27.6645 12.1765 27.6256C12.0827 27.5867 11.9913 27.5429 11.9023 27.4938C11.8134 27.4447 11.7274 27.3908 11.6452 27.3321C11.5623 27.2733 11.4831 27.2105 11.4081 27.1428C11.3326 27.0751 11.2619 27.0032 11.1949 26.9277C11.1278 26.8522 11.0657 26.7725 11.0078 26.6899C10.9505 26.6072 10.8975 26.5215 10.85 26.4329C10.8024 26.3442 10.7598 26.2538 10.7226 26.1603C10.6854 26.0669 10.6537 25.9716 10.6281 25.8746C10.6019 25.7775 10.5818 25.6793 10.5672 25.5804C10.5526 25.481 10.5434 25.3816 10.5404 25.2809C10.538 25.1809 10.5404 25.0808 10.5495 24.9808C10.5581 24.8808 10.5727 24.7819 10.5928 24.6837C10.6287 24.4872 10.6812 24.2955 10.75 24.108C10.8189 23.9205 10.903 23.7402 11.0023 23.5664C11.1016 23.3927 11.215 23.228 11.3423 23.0728C11.4697 22.9177 11.6086 22.7739 11.7603 22.6415C11.9121 22.5091 12.0736 22.3905 12.2454 22.2845C12.4172 22.1785 12.5964 22.0874 12.7835 22.0113C12.9706 21.9346 13.1631 21.8741 13.3605 21.8292C13.558 21.7843 13.7579 21.7555 13.9602 21.7436C14.0619 21.737 14.1643 21.7364 14.2667 21.7412C14.3684 21.7459 14.4702 21.7567 14.5708 21.7729C14.6719 21.7891 14.7712 21.8112 14.87 21.8388C14.9681 21.8664 15.0643 21.8993 15.1588 21.9382C15.2532 21.9766 15.3453 22.0203 15.4348 22.0694C15.5244 22.118 15.6103 22.1719 15.6932 22.2306C15.7767 22.2893 15.8559 22.3522 15.9315 22.4199C16.007 22.4876 16.0789 22.5595 16.146 22.6349C16.2136 22.711 16.2758 22.7901 16.3343 22.8728C16.3922 22.956 16.4452 23.0417 16.4933 23.1303C16.5415 23.219 16.5841 23.3107 16.6213 23.4041C16.6584 23.4976 16.6901 23.5934 16.7163 23.6905C16.7425 23.7875 16.7633 23.8857 16.7779 23.9858C16.7925 24.0852 16.8017 24.1853 16.8047 24.2859C16.8077 24.3859 16.8047 24.4866 16.7962 24.5866C16.787 24.6873 16.773 24.7867 16.7523 24.885ZM37.8328 24.885C37.7968 25.0814 37.7444 25.2731 37.6756 25.4606C37.6067 25.6481 37.5226 25.8284 37.4233 26.0022C37.324 26.1759 37.2106 26.3406 37.0833 26.4958C36.9565 26.6509 36.817 26.7947 36.6652 26.9271C36.5135 27.0595 36.352 27.1781 36.1802 27.2841C36.0089 27.3902 35.8292 27.4812 35.6421 27.5573C35.455 27.634 35.2625 27.6945 35.065 27.7394C34.8676 27.7843 34.6677 27.8125 34.4654 27.8251C34.3636 27.8311 34.2619 27.8311 34.1601 27.8263C34.0584 27.8209 33.9572 27.8095 33.8566 27.7927C33.7561 27.776 33.6568 27.7538 33.5593 27.7256C33.4612 27.6975 33.3655 27.6645 33.271 27.6256C33.1772 27.5867 33.0858 27.5429 32.9968 27.4938C32.9079 27.4447 32.8219 27.3908 32.7397 27.3321C32.6568 27.2733 32.5782 27.2105 32.5026 27.1428C32.4277 27.0751 32.3564 27.0032 32.2894 26.9277C32.2223 26.8522 32.1602 26.7725 32.1029 26.6899C32.045 26.6072 31.992 26.5215 31.9445 26.4329C31.8969 26.3442 31.8543 26.2538 31.8171 26.1603C31.7799 26.0669 31.7488 25.9716 31.7226 25.8746C31.6964 25.7775 31.6763 25.6793 31.6617 25.5804C31.6471 25.481 31.6385 25.3816 31.6355 25.2809C31.6325 25.1809 31.6355 25.0808 31.644 24.9808C31.6526 24.8808 31.6672 24.7819 31.6873 24.6837C31.7239 24.4872 31.7763 24.2955 31.8451 24.108C31.9134 23.9205 31.9975 23.7402 32.0968 23.5664C32.1961 23.3927 32.3095 23.228 32.4368 23.0728C32.5642 22.9177 32.7037 22.7739 32.8548 22.6415C33.0066 22.5091 33.1681 22.3905 33.3399 22.2845C33.5117 22.1785 33.6909 22.0874 33.8786 22.0113C34.0657 21.9346 34.2576 21.8741 34.4551 21.8292C34.6525 21.7843 34.8524 21.7555 35.0547 21.7436C35.1564 21.7376 35.2582 21.737 35.36 21.7424C35.4617 21.7477 35.5629 21.7591 35.6634 21.7759C35.764 21.7927 35.8633 21.8148 35.9614 21.843C36.0589 21.8705 36.1552 21.9041 36.249 21.943C36.3429 21.982 36.4349 22.0257 36.5232 22.0748C36.6122 22.1239 36.6981 22.1779 36.781 22.2366C36.8633 22.2953 36.9425 22.3582 37.0174 22.4259C37.093 22.4936 37.1637 22.5654 37.2307 22.6409C37.2978 22.7164 37.3599 22.7961 37.4178 22.8787C37.4757 22.9614 37.5281 23.0471 37.5756 23.1351C37.6238 23.2238 37.6658 23.3148 37.703 23.4083C37.7402 23.5018 37.7718 23.597 37.798 23.694C37.8236 23.7911 37.8444 23.8893 37.8584 23.9882C37.873 24.0876 37.8821 24.1871 37.8852 24.2877C37.8882 24.3877 37.8852 24.4878 37.8767 24.5878C37.8675 24.6879 37.8535 24.7867 37.8328 24.885ZM34.0925 16.173L34.6787 11.7562H39.9516L41.9777 16.1928L34.0925 16.173Z" fill="#3A2215"/>
</g>
</svg>
