<svg width="73" height="44" viewBox="0 0 73 44" fill="none" xmlns="http://www.w3.org/2000/svg">
<path d="M4.85706 15.696L7.16106 2.688H6.20106C5.57706 2.688 5.07306 2.712 4.68906 2.76C4.30506 2.808 4.00906 2.912 3.80106 3.072C3.59306 3.216 3.44906 3.432 3.36906 3.72L2.67306 6.192H0.825063L1.76106 0.959999H17.0491L16.1131 6.192H14.2891L14.5291 3.72C14.5611 3.432 14.4891 3.216 14.3131 3.072C14.1371 2.912 13.8571 2.808 13.4731 2.76C13.0891 2.712 12.5851 2.688 11.9611 2.688H11.0011L8.67306 15.672C8.60906 16.024 8.72106 16.264 9.00906 16.392C9.29706 16.504 9.68106 16.56 10.1611 16.56H10.5211L10.2571 18H2.45706L2.72106 16.56H3.08106C3.56106 16.56 3.96106 16.504 4.28106 16.392C4.60106 16.264 4.79306 16.032 4.85706 15.696ZM21.5671 18.312C20.4151 18.312 19.4071 18.088 18.5431 17.64C17.6951 17.192 17.0311 16.56 16.5511 15.744C16.0871 14.912 15.8551 13.928 15.8551 12.792C15.8551 11.896 16.0231 11.016 16.3591 10.152C16.6951 9.272 17.1671 8.488 17.7751 7.8C18.3991 7.096 19.1511 6.536 20.0311 6.12C20.9271 5.704 21.9271 5.496 23.0311 5.496C23.9431 5.496 24.7111 5.64 25.3351 5.928C25.9591 6.2 26.4311 6.584 26.7511 7.08C27.0871 7.56 27.2551 8.104 27.2551 8.712C27.2551 9.464 27.0551 10.12 26.6551 10.68C26.2711 11.224 25.6871 11.68 24.9031 12.048C24.1191 12.416 23.1431 12.704 21.9751 12.912C20.8071 13.104 19.4471 13.224 17.8951 13.272L18.1111 11.928C19.2471 11.896 20.1991 11.808 20.9671 11.664C21.7511 11.504 22.3751 11.296 22.8391 11.04C23.3191 10.768 23.6631 10.44 23.8711 10.056C24.0951 9.656 24.2071 9.192 24.2071 8.664C24.2071 8.376 24.1511 8.12 24.0391 7.896C23.9271 7.672 23.7671 7.504 23.5591 7.392C23.3671 7.264 23.1111 7.2 22.7911 7.2C22.3431 7.2 21.9191 7.344 21.5191 7.632C21.1351 7.904 20.7911 8.296 20.4871 8.808C20.1991 9.32 19.9671 9.928 19.7911 10.632C19.6151 11.336 19.5271 12.12 19.5271 12.984C19.5271 13.752 19.6231 14.4 19.8151 14.928C20.0231 15.456 20.3191 15.856 20.7031 16.128C21.0871 16.384 21.5591 16.512 22.1191 16.512C22.6471 16.512 23.1111 16.408 23.5111 16.2C23.9111 15.976 24.2631 15.68 24.5671 15.312C24.8871 14.944 25.1591 14.536 25.3831 14.088L26.7031 15.024C26.4151 15.664 26.0231 16.232 25.5271 16.728C25.0471 17.224 24.4711 17.616 23.7991 17.904C23.1431 18.176 22.3991 18.312 21.5671 18.312ZM32.7119 18.312C31.8639 18.312 31.1199 18.12 30.4799 17.736C29.8559 17.352 29.3679 16.8 29.0159 16.08C28.6639 15.344 28.4879 14.448 28.4879 13.392C28.4879 12.544 28.5999 11.736 28.8239 10.968C29.0479 10.184 29.3759 9.464 29.8079 8.808C30.2399 8.136 30.7519 7.56 31.3439 7.08C31.9519 6.584 32.6319 6.2 33.3839 5.928C34.1359 5.64 34.9519 5.496 35.8319 5.496C36.6799 5.496 37.4079 5.648 38.0159 5.952C38.6239 6.256 39.1199 6.656 39.5039 7.152C39.9039 7.632 40.1999 8.16 40.3919 8.736L38.7599 9.456C38.6799 8.976 38.5279 8.568 38.3039 8.232C38.0799 7.88 37.7839 7.608 37.4159 7.416C37.0639 7.224 36.6479 7.128 36.1679 7.128C35.6879 7.128 35.2399 7.256 34.8239 7.512C34.4239 7.768 34.0639 8.12 33.7439 8.568C33.4239 9.016 33.1519 9.52 32.9279 10.08C32.7039 10.624 32.5359 11.208 32.4239 11.832C32.3119 12.44 32.2559 13.048 32.2559 13.656C32.2559 14.28 32.3199 14.792 32.4479 15.192C32.5759 15.592 32.7679 15.888 33.0239 16.08C33.2799 16.272 33.5999 16.368 33.9839 16.368C34.3199 16.368 34.6399 16.288 34.9439 16.128C35.2479 15.968 35.5519 15.736 35.8559 15.432C36.1759 15.112 36.4959 14.72 36.8159 14.256C37.1359 13.776 37.4719 13.224 37.8239 12.6L38.3999 13.248C37.8399 14.304 37.2799 15.208 36.7199 15.96C36.1759 16.712 35.5839 17.296 34.9439 17.712C34.3039 18.112 33.5599 18.312 32.7119 18.312ZM39.6719 18.216C38.8719 18.216 38.2239 18.008 37.7279 17.592C37.2479 17.16 37.0079 16.528 37.0079 15.696C37.0079 15.6 37.0079 15.504 37.0079 15.408C37.0239 15.312 37.0399 15.208 37.0559 15.096C37.0719 14.968 37.0959 14.84 37.1279 14.712L36.8399 15.168L39.0239 2.712C39.0559 2.504 39.0239 2.352 38.9279 2.256C38.8479 2.144 38.7119 2.056 38.5199 1.992C38.3439 1.912 38.0959 1.848 37.7759 1.8L37.5359 1.752L37.7759 0.36H43.0559L40.7279 13.656C40.6639 13.992 40.6079 14.296 40.5599 14.568C40.5279 14.824 40.4959 15.048 40.4639 15.24C40.4319 15.432 40.4159 15.6 40.4159 15.744C40.4159 15.952 40.4719 16.104 40.5839 16.2C40.7119 16.296 40.8959 16.344 41.1359 16.344C41.4239 16.344 41.7039 16.296 41.9759 16.2C42.2479 16.088 42.4319 16.016 42.5279 15.984L42.2639 17.52C42.1039 17.616 41.8879 17.72 41.6159 17.832C41.3599 17.944 41.0639 18.032 40.7279 18.096C40.4079 18.176 40.0559 18.216 39.6719 18.216ZM48.1806 18.312C47.3326 18.312 46.5886 18.12 45.9486 17.736C45.3246 17.352 44.8366 16.8 44.4846 16.08C44.1326 15.344 43.9566 14.448 43.9566 13.392C43.9566 12.544 44.0686 11.736 44.2926 10.968C44.5166 10.184 44.8446 9.464 45.2766 8.808C45.7086 8.136 46.2206 7.56 46.8126 7.08C47.4206 6.584 48.1006 6.2 48.8526 5.928C49.6046 5.64 50.4206 5.496 51.3006 5.496C52.1486 5.496 52.8766 5.648 53.4846 5.952C54.0926 6.256 54.5886 6.656 54.9726 7.152C55.3726 7.632 55.6686 8.16 55.8606 8.736L54.2286 9.456C54.1486 8.976 53.9966 8.568 53.7726 8.232C53.5486 7.88 53.2526 7.608 52.8846 7.416C52.5326 7.224 52.1166 7.128 51.6366 7.128C51.1566 7.128 50.7086 7.256 50.2926 7.512C49.8926 7.768 49.5326 8.12 49.2126 8.568C48.8926 9.016 48.6206 9.52 48.3966 10.08C48.1726 10.624 48.0046 11.208 47.8926 11.832C47.7806 12.44 47.7246 13.048 47.7246 13.656C47.7246 14.28 47.7886 14.792 47.9166 15.192C48.0446 15.592 48.2366 15.888 48.4926 16.08C48.7486 16.272 49.0686 16.368 49.4526 16.368C49.7886 16.368 50.1086 16.288 50.4126 16.128C50.7166 15.968 51.0206 15.736 51.3246 15.432C51.6446 15.112 51.9646 14.72 52.2846 14.256C52.6046 13.776 52.9406 13.224 53.2926 12.6L53.8686 13.248C53.3086 14.304 52.7486 15.208 52.1886 15.96C51.6446 16.712 51.0526 17.296 50.4126 17.712C49.7726 18.112 49.0286 18.312 48.1806 18.312ZM55.1406 18.216C54.3406 18.216 53.6926 18.008 53.1966 17.592C52.7166 17.16 52.4766 16.528 52.4766 15.696C52.4766 15.6 52.4766 15.504 52.4766 15.408C52.4926 15.312 52.5086 15.208 52.5246 15.096C52.5406 14.968 52.5646 14.84 52.5966 14.712L52.3086 15.168L54.4926 2.712C54.5246 2.504 54.4926 2.352 54.3966 2.256C54.3166 2.144 54.1806 2.056 53.9886 1.992C53.8126 1.912 53.5646 1.848 53.2446 1.8L53.0046 1.752L53.2446 0.36H58.5246L56.1966 13.656C56.1326 13.992 56.0766 14.296 56.0286 14.568C55.9966 14.824 55.9646 15.048 55.9326 15.24C55.9006 15.432 55.8846 15.6 55.8846 15.744C55.8846 15.952 55.9406 16.104 56.0526 16.2C56.1806 16.296 56.3646 16.344 56.6046 16.344C56.8926 16.344 57.1726 16.296 57.4446 16.2C57.7166 16.088 57.9006 16.016 57.9966 15.984L57.7326 17.52C57.5726 17.616 57.3566 17.72 57.0846 17.832C56.8286 17.944 56.5326 18.032 56.1966 18.096C55.8766 18.176 55.5246 18.216 55.1406 18.216ZM63.6248 19.608L64.6328 18.384L66.0248 15.552L63.9608 5.736H59.4728L59.2328 7.152L59.4728 7.2C59.7768 7.248 60.0168 7.312 60.1928 7.392C60.3848 7.456 60.5288 7.544 60.6248 7.656C60.7368 7.752 60.8088 7.904 60.8408 8.112L63.6248 19.608ZM65.1608 16.08L64.2248 17.064C63.8728 17.768 63.5288 18.36 63.1928 18.84C62.8568 19.336 62.5288 19.728 62.2088 20.016C61.8888 20.32 61.5528 20.536 61.2008 20.664C60.8648 20.808 60.5048 20.88 60.1208 20.88C59.5608 20.88 59.1048 20.808 58.7528 20.664C58.4168 20.536 58.1848 20.448 58.0568 20.4L57.5768 23.112C57.6888 23.176 57.9288 23.272 58.2968 23.4C58.6648 23.528 59.1368 23.592 59.7128 23.592C60.2728 23.592 60.8088 23.48 61.3208 23.256C61.8328 23.032 62.3288 22.68 62.8088 22.2C63.3048 21.72 63.8088 21.096 64.3208 20.328C64.8328 19.576 65.3768 18.672 65.9528 17.616C66.3688 16.848 66.7768 16.08 67.1768 15.312C67.5928 14.528 68.0088 13.752 68.4248 12.984C68.8408 12.2 69.2488 11.424 69.6488 10.656C70.0648 9.888 70.4728 9.112 70.8728 8.328C71.2888 7.544 71.6968 6.768 72.0968 6L72.1208 5.736H69.4328C69.0808 6.6 68.7288 7.464 68.3768 8.328C68.0248 9.192 67.6728 10.056 67.3208 10.92C66.9688 11.784 66.6088 12.648 66.2408 13.512C65.8888 14.36 65.5288 15.216 65.1608 16.08ZM18.9757 38.24C18.0957 38.24 17.2957 38.136 16.5757 37.928C15.8557 37.704 15.2237 37.376 14.6797 36.944C14.1517 36.512 13.7037 35.992 13.3357 35.384C12.9837 34.76 12.7197 34.04 12.5437 33.224C12.6877 33.336 12.8557 33.44 13.0477 33.536C13.2397 33.632 13.4157 33.712 13.5757 33.776C13.7517 33.824 13.8397 33.864 13.8397 33.896L12.6877 38H10.9357L11.9677 32.6H13.9357C14.0637 33.176 14.2717 33.704 14.5597 34.184C14.8477 34.664 15.1997 35.072 15.6157 35.408C16.0317 35.744 16.5037 36.008 17.0317 36.2C17.5597 36.376 18.1357 36.464 18.7597 36.464C19.3997 36.464 19.9357 36.368 20.3677 36.176C20.8157 35.984 21.1517 35.704 21.3757 35.336C21.6157 34.968 21.7357 34.52 21.7357 33.992C21.7357 33.56 21.6237 33.184 21.3997 32.864C21.1917 32.544 20.8957 32.264 20.5117 32.024C20.1437 31.784 19.7197 31.56 19.2397 31.352C18.7757 31.144 18.2797 30.92 17.7517 30.68C16.9997 30.328 16.3037 29.936 15.6637 29.504C15.0397 29.072 14.5357 28.552 14.1517 27.944C13.7837 27.32 13.5997 26.552 13.5997 25.64C13.5997 24.664 13.8237 23.808 14.2717 23.072C14.7357 22.336 15.3917 21.76 16.2397 21.344C17.1037 20.928 18.1277 20.72 19.3117 20.72C20.2397 20.72 21.0557 20.888 21.7597 21.224C22.4797 21.56 23.0557 22.032 23.4877 22.64C23.9357 23.248 24.2237 23.96 24.3517 24.776C24.2397 24.728 24.1037 24.688 23.9437 24.656C23.7997 24.608 23.6557 24.568 23.5117 24.536C23.3677 24.488 23.2317 24.44 23.1037 24.392L24.1357 21.056H25.7677L24.9757 25.496H23.1517C23.0557 24.936 22.8397 24.432 22.5037 23.984C22.1677 23.52 21.7437 23.16 21.2317 22.904C20.7197 22.632 20.1437 22.496 19.5037 22.496C18.9277 22.496 18.4397 22.592 18.0397 22.784C17.6397 22.976 17.3357 23.232 17.1277 23.552C16.9357 23.872 16.8397 24.256 16.8397 24.704C16.8397 25.12 16.9357 25.472 17.1277 25.76C17.3197 26.048 17.5837 26.304 17.9197 26.528C18.2717 26.736 18.6637 26.936 19.0957 27.128C19.5437 27.32 20.0157 27.52 20.5117 27.728C21.1037 27.984 21.6717 28.264 22.2157 28.568C22.7757 28.872 23.2637 29.224 23.6797 29.624C24.1117 30.024 24.4557 30.488 24.7117 31.016C24.9677 31.528 25.0957 32.128 25.0957 32.816C25.0957 33.664 24.9437 34.424 24.6397 35.096C24.3357 35.768 23.9117 36.336 23.3677 36.8C22.8237 37.264 22.1757 37.624 21.4237 37.88C20.6877 38.12 19.8717 38.24 18.9757 38.24ZM27.0219 38H30.6459L33.7419 20.36H28.4619L28.2219 21.752L28.4619 21.8C28.7819 21.848 29.0379 21.912 29.2299 21.992C29.4219 22.056 29.5579 22.144 29.6379 22.256C29.7339 22.352 29.7579 22.504 29.7099 22.712L27.0219 38ZM39.0459 33.68L39.6459 30.608C39.7419 30.096 39.8139 29.664 39.8619 29.312C39.9099 28.944 39.9339 28.624 39.9339 28.352C39.9339 27.472 39.6619 26.776 39.1179 26.264C38.5739 25.752 37.8139 25.496 36.8379 25.496C36.1979 25.496 35.6059 25.608 35.0619 25.832C34.5339 26.056 34.0299 26.376 33.5499 26.792C33.0859 27.192 32.6379 27.68 32.2059 28.256C31.7899 28.816 31.3659 29.448 30.9339 30.152L31.3659 31.064C31.7979 30.312 32.2299 29.68 32.6619 29.168C33.0939 28.656 33.5179 28.264 33.9339 27.992C34.3659 27.72 34.7819 27.584 35.1819 27.584C35.5819 27.584 35.8619 27.696 36.0219 27.92C36.1819 28.128 36.2619 28.408 36.2619 28.76C36.2619 28.968 36.2379 29.2 36.1899 29.456C36.1579 29.696 36.1019 30.008 36.0219 30.392L35.4939 33.104C35.3979 33.568 35.3259 33.968 35.2779 34.304C35.2299 34.624 35.1899 34.904 35.1579 35.144C35.1419 35.368 35.1339 35.584 35.1339 35.792C35.1339 36.336 35.2459 36.792 35.4699 37.16C35.7099 37.512 36.0379 37.776 36.4539 37.952C36.8699 38.128 37.3499 38.216 37.8939 38.216C38.2619 38.216 38.6059 38.184 38.9259 38.12C39.2619 38.056 39.5659 37.968 39.8379 37.856C40.1099 37.728 40.3339 37.608 40.5099 37.496L40.7979 35.984C40.7339 36.016 40.6219 36.064 40.4619 36.128C40.3179 36.176 40.1499 36.224 39.9579 36.272C39.7819 36.32 39.5979 36.344 39.4059 36.344C39.1819 36.344 39.0059 36.296 38.8779 36.2C38.7659 36.104 38.7099 35.952 38.7099 35.744C38.7099 35.616 38.7259 35.456 38.7579 35.264C38.7899 35.072 38.8299 34.848 38.8779 34.592C38.9259 34.32 38.9819 34.016 39.0459 33.68ZM51.2568 33.272C51.3688 32.952 51.4488 32.624 51.4968 32.288C51.5608 31.936 51.6088 31.6 51.6408 31.28C51.6728 30.944 51.6888 30.616 51.6888 30.296C51.6888 29.656 51.6008 29.104 51.4248 28.64C51.2488 28.176 50.9928 27.824 50.6568 27.584C50.3208 27.328 49.9128 27.2 49.4328 27.2C49.0648 27.2 48.7208 27.296 48.4008 27.488C48.0968 27.664 47.8168 27.904 47.5608 28.208C47.3208 28.496 47.1048 28.848 46.9128 29.264C46.7368 29.664 46.5848 30.088 46.4568 30.536C46.3608 30.856 46.2808 31.192 46.2168 31.544C46.1528 31.88 46.1048 32.216 46.0728 32.552C46.0568 32.872 46.0488 33.192 46.0488 33.512C46.0488 34.152 46.1368 34.704 46.3128 35.168C46.4888 35.632 46.7448 35.992 47.0808 36.248C47.4168 36.488 47.8168 36.608 48.2808 36.608C48.6648 36.608 49.0088 36.52 49.3128 36.344C49.6168 36.152 49.8888 35.912 50.1288 35.624C50.3848 35.32 50.6008 34.968 50.7768 34.568C50.9688 34.152 51.1288 33.72 51.2568 33.272ZM42.2808 32.528C42.2808 31.712 42.3928 30.944 42.6168 30.224C42.8408 29.504 43.1608 28.856 43.5768 28.28C43.9928 27.704 44.4888 27.208 45.0648 26.792C45.6568 26.376 46.3128 26.056 47.0328 25.832C47.7528 25.608 48.5208 25.496 49.3368 25.496C50.5368 25.496 51.5928 25.736 52.5048 26.216C53.4168 26.68 54.1288 27.344 54.6408 28.208C55.1688 29.072 55.4328 30.104 55.4328 31.304C55.4328 32.12 55.3208 32.888 55.0968 33.608C54.8728 34.312 54.5528 34.96 54.1368 35.552C53.7208 36.128 53.2248 36.624 52.6488 37.04C52.0728 37.44 51.4248 37.752 50.7048 37.976C49.9848 38.2 49.2088 38.312 48.3768 38.312C47.1928 38.312 46.1448 38.08 45.2328 37.616C44.3208 37.152 43.6008 36.488 43.0728 35.624C42.5448 34.744 42.2808 33.712 42.2808 32.528ZM54.6699 43.352L54.9099 41.984H54.9339C55.3819 41.984 55.7579 41.936 56.0619 41.84C56.3659 41.744 56.5419 41.544 56.5899 41.24L58.9419 28.088C58.9899 27.896 58.9659 27.744 58.8699 27.632C58.7899 27.52 58.6459 27.432 58.4379 27.368C58.2459 27.304 57.9979 27.248 57.6939 27.2L57.4059 27.152L57.6699 25.736H62.7099L62.1579 29.168L62.4459 28.64L60.1419 41.768C60.1419 41.8 60.1899 41.832 60.2859 41.864C60.3979 41.896 60.5339 41.92 60.6939 41.936C60.8699 41.952 61.0459 41.96 61.2219 41.96C61.4139 41.976 61.5899 41.984 61.7499 41.984H62.1579L61.9419 43.352H54.6699ZM58.8459 35.072L60.5019 34.352C60.5819 34.832 60.7339 35.248 60.9579 35.6C61.1819 35.936 61.4699 36.2 61.8219 36.392C62.1899 36.584 62.6139 36.68 63.0939 36.68C63.5739 36.68 64.0139 36.552 64.4139 36.296C64.8299 36.04 65.1979 35.696 65.5179 35.264C65.8379 34.816 66.1099 34.312 66.3339 33.752C66.5579 33.192 66.7259 32.608 66.8379 32C66.9499 31.376 67.0059 30.768 67.0059 30.176C67.0059 29.552 66.9419 29.04 66.8139 28.64C66.7019 28.24 66.5179 27.944 66.2619 27.752C66.0219 27.56 65.7019 27.464 65.3019 27.464C64.8539 27.464 64.4219 27.608 64.0059 27.896C63.6059 28.168 63.1979 28.576 62.7819 29.12C62.3659 29.648 61.9259 30.312 61.4619 31.112L60.8859 30.488C61.4619 29.464 62.0299 28.584 62.5899 27.848C63.1499 27.096 63.7499 26.52 64.3899 26.12C65.0459 25.704 65.7899 25.496 66.6219 25.496C67.4539 25.496 68.1739 25.688 68.7819 26.072C69.4059 26.456 69.8939 27.016 70.2459 27.752C70.5979 28.472 70.7739 29.368 70.7739 30.44C70.7739 31.256 70.6619 32.056 70.4379 32.84C70.2139 33.624 69.8859 34.352 69.4539 35.024C69.0219 35.68 68.5019 36.256 67.8939 36.752C67.3019 37.232 66.6299 37.616 65.8779 37.904C65.1259 38.176 64.3099 38.312 63.4299 38.312C62.5819 38.312 61.8459 38.16 61.2219 37.856C60.6139 37.552 60.1179 37.16 59.7339 36.68C59.3499 36.184 59.0539 35.648 58.8459 35.072Z" fill="#29180F"/>
</svg>
